<?xml version="1.0" encoding="UTF-8"?> <!-- Generator: Adobe Illustrator 23.0.1, SVG Export Plug-In . SVG Version: 6.00 Build 0) --> <svg xmlns="http://www.w3.org/2000/svg" xmlns:xlink="http://www.w3.org/1999/xlink" id="S44_Social" x="0px" y="0px" viewBox="0 0 43.6 48" style="enable-background:new 0 0 43.6 48;" xml:space="preserve"> <style type="text/css"> .st0{fill:#595959;} </style> <title>S44_Social</title> <rect x="10.5" y="14.2" transform="matrix(0.8125 -0.583 0.583 0.8125 -5.1446 14.4596)" class="st0" width="18.8" height="2"></rect> <rect x="20.2" y="24.2" transform="matrix(0.4586 -0.8886 0.8886 0.4586 -18.5892 37.0984)" class="st0" width="2" height="19.3"></rect> <path class="st0" d="M7.6,32.7c-4.2,0-7.6-3.4-7.6-7.6s3.4-7.6,7.6-7.6c4.2,0,7.6,3.4,7.6,7.6C15.1,29.3,11.8,32.7,7.6,32.7z M7.6,19.5C4.5,19.5,2,22,2,25.1c0,3.1,2.5,5.6,5.6,5.6c3.1,0,5.6-2.5,5.6-5.6c0,0,0,0,0,0C13.1,22,10.6,19.5,7.6,19.5z"></path> <path class="st0" d="M36,48c-4.2,0-7.6-3.4-7.6-7.6s3.4-7.6,7.6-7.6s7.6,3.4,7.6,7.6l0,0C43.6,44.6,40.2,48,36,48z M36,34.9 c-3.1,0-5.6,2.5-5.6,5.6S32.9,46,36,46s5.6-2.5,5.6-5.6l0,0C41.6,37.4,39.1,34.9,36,34.9z"></path> <path class="st0" d="M33.8,15.1c-4.2,0-7.6-3.4-7.6-7.6S29.7,0,33.8,0s7.6,3.4,7.6,7.6l0,0C41.4,11.7,38,15.1,33.8,15.1z M33.8,2 c-3.1,0-5.6,2.5-5.6,5.6s2.5,5.6,5.6,5.6s5.6-2.5,5.6-5.6l0,0C39.4,4.5,36.9,2,33.8,2z"></path> </svg> 