<?xml version="1.0" encoding="UTF-8"?> <!-- Generator: Adobe Illustrator 23.0.1, SVG Export Plug-In . SVG Version: 6.00 Build 0) --> <svg xmlns="http://www.w3.org/2000/svg" xmlns:xlink="http://www.w3.org/1999/xlink" id="S44_Digital_Platforms" x="0px" y="0px" viewBox="0 0 73.9 48" style="enable-background:new 0 0 73.9 48;" xml:space="preserve"> <style type="text/css"> .st0{fill:#595959;} </style> <title>S44_Digital_Platforms</title> <polygon class="st0" points="73.9,40.3 73.9,0 12.8,0 12.8,25.4 14.8,25.4 14.8,2 71.9,2 71.9,38.3 36.3,38.3 36.3,40.3 42.8,40.3 42.8,44.9 36.3,44.9 36.3,46.9 55.5,46.9 55.5,44.9 44.8,44.9 44.8,40.3 "></polygon> <polygon class="st0" points="26.9,47 26.9,45.1 2,45.1 2,26.4 29.6,26.4 29.6,32.9 31.6,32.9 31.6,24.4 0,24.4 0,47.1 31.6,47.1 31.6,47 "></polygon> <path class="st0" d="M25.9,48h11.4V31.9H25.9V48z M27.9,33.9h7.4V46h-7.4V33.9z"></path> </svg> 