<?xml version="1.0" encoding="UTF-8"?> <!-- Generator: Adobe Illustrator 23.0.1, SVG Export Plug-In . SVG Version: 6.00 Build 0) --> <svg xmlns="http://www.w3.org/2000/svg" xmlns:xlink="http://www.w3.org/1999/xlink" id="S44_CCM" x="0px" y="0px" viewBox="0 0 47 48" style="enable-background:new 0 0 47 48;" xml:space="preserve"> <style type="text/css"> .st0{fill:#595959;} </style> <title>S44_CCM</title> <g id="Page-1"> <g id="Stroke-1"> <polygon class="st0" points="7,33.5 0,33.5 0,0 41,0 41,7 39,7 39,2 2,2 2,31.5 7,31.5 "></polygon> </g> <g id="Stroke-3"> <path class="st0" d="M13.5,48v-8.5H6V6h41v33.5H24.6L13.5,48z M8,37.5h7.5V44l8.4-6.5H45V8H8V37.5z"></path> </g> <g id="Stroke-7"> <path class="st0" d="M26.6,31.3c-5.1,0-9.2-4-9.2-9.1c0-0.1,0-0.3,0-0.4h2c-0.2,4,2.9,7.3,6.9,7.5c0.1,0,0.2,0,0.3,0 c3.9,0,7.2-3.8,7.2-8.2h2C35.8,26.7,31.7,31.3,26.6,31.3z"></path> </g> <g id="Stroke-9"> <rect x="21.9" y="15.3" class="st0" width="2" height="4.5"></rect> </g> <g id="Stroke-11"> <rect x="29.4" y="15.3" class="st0" width="2" height="4.5"></rect> </g> </g> </svg> 