<?xml version="1.0" encoding="UTF-8"?> <!-- Generator: Adobe Illustrator 23.0.1, SVG Export Plug-In . SVG Version: 6.00 Build 0) --> <svg xmlns="http://www.w3.org/2000/svg" xmlns:xlink="http://www.w3.org/1999/xlink" id="S44_Exp_Design" x="0px" y="0px" viewBox="0 0 51.3 48" style="enable-background:new 0 0 51.3 48;" xml:space="preserve"> <style type="text/css"> .st0{fill:#595959;} </style> <title>S44_Exp_Design</title> <path class="st0" d="M16.9,48C7.6,48,0,40.5-0.1,31.2c0-6.4,3.6-12.3,9.4-15.2l1.4-0.7v1.6c0,5.6,3.2,10.8,8.2,13.3l0.5,0.3v0.7 c0,5,2.5,9.6,6.7,12.4l1.3,0.8l-1.3,0.8C23.5,47,20.2,48,16.9,48z M8.9,18.6c-7,4.3-9.2,13.5-4.8,20.5c4.2,6.8,12.9,9,19.8,5.2 c-3.8-3.1-6.1-7.7-6.3-12.6C12.7,29,9.4,24.1,8.9,18.6L8.9,18.6z"></path> <path class="st0" d="M25.6,19.1l-0.5-0.4c-4.4-2.9-10.1-3.3-14.9-0.9l-1.4,0.7v-1.6C8.5,7.6,15.9-0.1,25.2-0.4s17.1,7.1,17.3,16.4 c0,0.3,0,0.5,0,0.8v1.8l-1.4-0.8c-4.8-2.4-10.4-2.1-14.9,0.9L25.6,19.1z M16.9,14.2c3.1,0,6.1,0.8,8.8,2.5c4.5-2.7,9.9-3.2,14.8-1.3 C39.6,7.2,32.3,1.2,24.2,2.1c-7,0.7-12.6,6.3-13.3,13.3C12.8,14.6,14.8,14.2,16.9,14.2z"></path> <path class="st0" d="M18.1,32c-5.7-2.8-9.3-8.6-9.3-15v-0.6L9.3,16c2.3-1.2,4.9-1.8,7.6-1.8c3.3,0,6.5,1,9.3,2.8l-1.1,1.7 c-4.3-2.8-9.7-3.2-14.3-1.1c0.2,5.4,3.4,10.2,8.2,12.6L18.1,32z"></path> <path class="st0" d="M34.4,48c-3.3,0-6.6-1-9.3-2.8l-1.3-0.8l1.3-0.8c4.2-2.8,6.7-7.4,6.7-12.4v-0.6l0.6-0.3c5-2.5,8.2-7.6,8.2-13.2 v-1.6L42,16c8.4,4.1,11.8,14.3,7.6,22.6C46.8,44.4,40.8,48,34.4,48z M27.5,44.3c2.2,1.1,4.6,1.7,7,1.7c8.2,0,14.9-6.7,14.8-14.9 c0-5.1-2.6-9.7-6.8-12.5c-0.6,5.5-3.8,10.4-8.7,13.1C33.6,36.6,31.3,41.2,27.5,44.3z"></path> <path class="st0" d="M25.6,45.6l-0.5-0.4c-4.7-3.1-7.6-8.4-7.6-14.1V31h2v0.1c0,4.7,2.3,9.2,6.1,12c3.8-2.8,6.1-7.3,6.1-12l2-0.1 v0.1c0,5.7-2.8,11-7.6,14.1L25.6,45.6z"></path> <path class="st0" d="M33.2,32l-0.9-1.8c4.8-2.4,8-7.3,8.2-12.6c-4.7-2.1-10-1.6-14.3,1.1L25.1,17c5-3.4,11.5-3.8,16.9-1l0.5,0.3v0.6 C42.6,23.3,38.9,29.2,33.2,32z"></path> <path class="st0" d="M25.6,33.8c-2.6,0-5.2-0.6-7.6-1.8l-0.6-0.3v-0.6c0-5.6,2.9-10.9,7.6-14l0.5-0.4l0.5,0.4 c4.7,3.1,7.5,8.4,7.6,14v0.6L33.2,32C30.9,33.2,28.3,33.8,25.6,33.8z M19.5,30.4c3.9,1.8,8.3,1.8,12.2,0c-0.2-4.5-2.4-8.7-6.1-11.3 C22,21.8,19.7,25.9,19.5,30.4z"></path> </svg> 